#!OML:ASF F:\VICON\USERDATA\INSTALL\rory3\rory3.ASF
:FULLY-SPECIFIED
:DEGREES
19
root 0.521956073442766 17.753274778591635 -1.0086427196313288 -2.079689734995256 2.2410029224848595 3.220386371903481
lfemur 15.05112814838731 -3.7123111177862516 -28.052558676938247
ltibia 14.970946547773458
lfoot -16.935173138560717 -2.658727038056469
ltoes -7.797519007480022
rfemur -28.591502600510957 7.00596258448277 14.944270425078372
rtibia 16.700569005989014
rfoot -12.589396004003337 -14.572072086413776
rtoes 0.2658433094439001
lowerback 10.674528261446868 -1.7509788358463054 -4.609098233205308
upperback 0.30470616434894005 -2.8203681010802666 1.2808402791009346
thorax -5.392398109089742 -1.2562530845013393 4.365956623168734
lowerneck -16.730702151879797 -2.7773487008508737 -1.7712713685248702
upperneck 21.22657256212634 -3.2319687265370005 -0.7024074070287791
head 9.486321659505476 -1.7310906538612962 -0.3682423675044899
lclavicle 1.4734891434665057e-16 2.3728955699948125e-16
lhumerus -20.492179166890622 -1.948992923275374 80.20424010173052
lradius 32.27285671886015
lwrist 8.570790298625571
lhand -31.731681942542707 19.074376824145883
lfingers 7.12502
lthumb -4.989621736631556 48.99893717619768
rclavicle 1.4734891434665057e-16 2.3728955699948125e-16
rhumerus -35.02086411651854 -28.350271388577546 -72.05819865310895
rradius 21.93969197328839
rwrist 5.942231728651576
rhand -17.04567698174862 23.595251522761615
rfingers 7.12502
rthumb 9.191295002853066 -6.181011210187837
20
root 0.4025147782598471 17.699827121540118 0.019491268403275086 -2.338567568298376 1.883863947295564 2.790308090800206
lfemur 17.664716774100228 -5.234992960691612 -27.88097234188291
ltibia 18.033064486913908
lfoot -15.142317492953264 -1.2578435316237586
ltoes -14.399735357535269
rfemur -28.466592394022296 4.736207631821804 17.95811870257434
rtibia 23.613655229316418
rfoot -9.497775523031734 -10.044053694163605
rtoes -0.05169365669616566
lowerback 10.16079009645136 -1.729093663800239 -4.486839954061892
upperback 0.5258971988331689 -2.740729889128966 1.459682755708672
thorax -4.874613073255526 -1.2392172146885987 4.443367852648094
lowerneck -16.39058669696069 -2.7480071043042176 -2.0349035625305163
upperneck 20.853885278183423 -3.1860717921722026 -0.4520976662647649
head 9.303059122014634 -1.7029765982928262 -0.2229455729811377
lclavicle 1.4734889545117e-16 2.372895666856763e-16
lhumerus -20.467948312252027 -1.2599579377143826 80.31199381981544
lradius 32.60436340853688
lwrist 7.891884560427318
lhand -30.74186228338015 16.001695958543834
lfingers 7.12502
lthumb -4.033875609316564 45.944855688583665
rclavicle 1.4734889545117e-16 2.372895666856763e-16
rhumerus -36.48395645465844 -32.18109424289504 -69.069137801927
rradius 19.85694247250917
rwrist 10.746911422613945
rhand -19.328589284847045 22.17643292841026
rfingers 7.12502
rthumb 6.987977266959875 -7.692387824456429
21
root 0.34738838030587826 17.69362382425037 1.2377169437851254 -2.7233132319176603 2.0904097459007986 2.3502891219370774
lfemur 16.580132796745758 -6.1997547943358935 -26.61109003002658
ltibia 25.297245459022353
lfoot -13.42316193862613 -4.533044076012281
ltoes -11.435282761573786
rfemur -26.694427370213376 4.05197362796065 19.899592439893652
rtibia 27.160531369689856
rfoot -6.399651699176527 -5.851949557636365
rtoes 1.6209974796128872
lowerback 9.99062578215374 -1.8256786298023417 -3.6086592713669168
upperback 0.4221041258090432 -2.7268027846542404 1.5164705608380573
thorax -4.893509279109242 -1.1451958169232166 4.197255095307441
lowerneck -16.332063328358558 -2.6601755962765674 -2.024141832221078
upperneck 20.859606767643623 -3.133811542081518 -0.49984509314212455
head 9.353757434693913 -1.6347298115737514 -0.21767078457023786
lclavicle 1.482856691293716e-16 2.3798496901397225e-16
lhumerus -20.41412897663448 -0.9067380038282762 80.30710319186625
lradius 32.93369529084243
lwrist 7.92693655137192
lhand -30.204637658061984 17.437942247005747
lfingers 7.12502
lthumb -3.687264967653923 47.5622136937324
rclavicle 1.4644604859168458e-16 2.3659516194868826e-16
rhumerus -38.03482376533597 -32.05626293848312 -68.1224354453206
rradius 19.753419032699032
rwrist 11.021141814306304
rhand -18.667646830023635 22.237179948260163
rfingers 7.12502
rthumb 7.294584356950813 -8.091555907537206
22
root 0.29273365846558363 17.670601606746043 2.194167769018037 -3.2769026038341282 2.0398821637902764 1.6238573638942142
lfemur 13.466387684890314 -5.516356165896575 -24.67380364272993
ltibia 34.71725012487843
lfoot -10.652285484464212 -8.584957913844633
ltoes -13.242857283188599
rfemur -24.67978993506646 3.4097523100149707 22.24073395693537
rtibia 29.864393524927927
rfoot -5.714018940077043 -3.2059544695039475
rtoes 4.0255223788969
lowerback 10.08499337758226 -1.8675895177395168 -2.721461634228474
upperback 0.29415611901718264 -2.682100740468347 1.578437376368398
thorax -4.9846952261503965 -1.1555035260080595 3.9065224690665588
lowerneck -16.257138907493122 -2.581681764139328 -1.9434174069220922
upperneck 20.855766505796026 -3.0351942876393747 -0.592669681857007
head 9.364358281678143 -1.6045442384772586 -0.24039070263933482
lclavicle 1.4754673463955458e-16 2.374211508291587e-16
lhumerus -21.0367927133698 -0.05653404636793535 80.43275176095311
lradius 32.65447022502908
lwrist 8.591181995573933
lhand -30.080463228339596 17.943775178274784
lfingers 7.12502
lthumb -3.488622941969517 48.53115751998963
rclavicle 1.465489816504149e-16 2.3667423411408217e-16
rhumerus -38.71067332654698 -31.373333156648528 -68.10821689029355
rradius 19.906541897193357
rwrist 10.499464075167285
rhand -18.37662259988543 22.126084992704865
rfingers 7.12502
rthumb 7.466782691703423 -8.350592844663199
